<svg width="20" height="20" viewBox="0 0 20 20" fill="none" xmlns="http://www.w3.org/2000/svg">
<path d="M19.6484 19.6484C19.4141 19.8828 19.1341 20 18.8086 20C18.4831 20 18.2031 19.8828 17.9688 19.6484L9.19922 10.8789L7.14844 12.9297V12.9492C7.38281 13.1836 7.5 13.4668 7.5 13.7988C7.5 14.1309 7.38281 14.4141 7.14844 14.6484C6.91406 14.8828 6.63086 15 6.29883 15C5.9668 15 5.68359 14.8828 5.44922 14.6484L0.351562 9.55078C0.117188 9.31641 0 9.0332 0 8.70117C0 8.36914 0.117188 8.08594 0.351562 7.85156C0.585938 7.61719 0.869141 7.5 1.20117 7.5C1.5332 7.5 1.81641 7.61719 2.05078 7.85156L2.07031 7.87109L7.87109 2.07031L7.85156 2.05078C7.61719 1.81641 7.5 1.5332 7.5 1.20117C7.5 0.869141 7.61719 0.585938 7.85156 0.351562C8.08594 0.117188 8.36914 0 8.70117 0C9.0332 0 9.31641 0.117188 9.55078 0.351562L14.6484 5.44922C14.8828 5.68359 15 5.9668 15 6.29883C15 6.63086 14.8828 6.91406 14.6484 7.14844C14.4141 7.38281 14.1309 7.5 13.7988 7.5C13.4668 7.5 13.1836 7.38281 12.9492 7.14844L12.9297 7.12891L10.8789 9.17969L19.6484 17.9688C19.8828 18.2031 20 18.4831 20 18.8086C20 19.1341 19.8828 19.4141 19.6484 19.6484ZM6.58203 4.88281L4.90234 6.58203L8.4375 10.1172L10.1172 8.4375L6.58203 4.88281Z" fill="#928989"/>
</svg>
