<svg width="20" height="20" viewBox="0 0 20 20" fill="none" xmlns="http://www.w3.org/2000/svg">
<path d="M10.595 5.196L11.041 6.567C11.4632 6.20812 11.9532 5.93777 12.482 5.772C13.072 5.58 13.593 5.472 14.064 5.41L13.634 4.087C13.0977 4.16422 12.5691 4.28734 12.054 4.455C11.5319 4.62422 11.0396 4.87425 10.595 5.196ZM11.522 8.051L11.968 9.422C12.3902 9.06312 12.8802 8.79277 13.409 8.627C13.999 8.435 14.52 8.327 14.991 8.265L14.561 6.942C14.0247 7.01922 13.4961 7.14234 12.981 7.31C12.4586 7.4786 11.9662 7.72869 11.522 8.051ZM12.45 10.905L12.896 12.276C13.3182 11.9171 13.8082 11.6468 14.337 11.481C14.927 11.289 15.448 11.181 15.919 11.119L15.489 9.79599C14.9527 9.87322 14.4241 9.99634 13.909 10.164C13.3866 10.3326 12.8942 10.5827 12.45 10.905ZM5.38797 13.077L5.81797 14.4C6.29453 14.1422 6.79401 13.9293 7.30997 13.764C7.83524 13.5878 8.39054 13.5187 8.94297 13.561L8.49697 12.19C7.94852 12.1908 7.40357 12.2775 6.88197 12.447C6.36676 12.6136 5.86691 12.8244 5.38797 13.077ZM3.53297 7.368L3.96297 8.691C4.43973 8.43365 4.93917 8.22075 5.45497 8.055C5.98024 7.87877 6.53554 7.80974 7.08797 7.852L6.64297 6.48C6.09415 6.48121 5.54889 6.56826 5.02697 6.738C4.51176 6.9046 4.01191 7.11538 3.53297 7.368ZM4.45997 10.223L4.88997 11.546C5.36653 11.2882 5.86601 11.0753 6.38197 10.91C6.90724 10.7338 7.46254 10.6647 8.01497 10.707L7.56997 9.335C7.02152 9.33578 6.47657 9.4225 5.95497 9.592C5.43941 9.75892 4.93922 9.97004 4.45997 10.223ZM11.064 1.41C9.75016 1.82974 8.65378 2.74872 8.01097 3.969C6.77395 3.35983 5.34712 3.26107 4.03797 3.694C1.51497 4.514 0.0689697 6.321 0.0689697 6.321L4.16397 18.908C4.28997 19.295 4.80997 19.385 5.04197 19.051C5.54097 18.332 6.50197 17.393 8.29897 16.809C10.017 16.251 11.268 16.863 11.954 17.387C12.226 17.595 12.616 17.447 12.716 17.119C12.968 16.292 13.623 15.079 15.326 14.526C17.125 13.941 18.455 14.137 19.282 14.426C19.667 14.56 20.032 14.184 19.907 13.797L15.819 1.203C15.819 1.203 13.587 0.590996 11.064 1.41ZM10.951 15.256C9.9244 14.947 8.82749 14.9624 7.80997 15.3C6.55897 15.706 5.68297 16.249 5.11097 16.704L1.86597 6.722C2.22397 6.364 3.05297 5.68 4.52797 5.201C5.91697 4.75 7.05597 5.136 7.80697 5.579L10.951 15.256ZM17.845 12.567C17.114 12.535 16.086 12.611 14.835 13.018C13.8133 13.3426 12.9168 13.9747 12.268 14.828L9.12397 5.151C9.46997 4.351 10.164 3.369 11.554 2.918C13.028 2.439 14.101 2.505 14.601 2.584L17.845 12.567Z" fill="#928989"/>
</svg>
