<svg width="30" height="30" viewBox="0 0 30 30" fill="none" xmlns="http://www.w3.org/2000/svg">
<circle cx="15" cy="15" r="15" fill="#F7F7F7"/>
<path d="M22.4587 13.875L20.625 9.375H21.75V8.25H16.125V7.125H15V8.25H9.375V9.375H10.5L8.6775 13.875H8.25V15H8.41875C8.59425 15.5603 8.95087 16.0462 9.43125 16.3837C9.9056 16.7277 10.4766 16.913 11.0625 16.913C11.6484 16.913 12.2194 16.7277 12.6937 16.3837C13.1745 16.0442 13.5334 15.5591 13.7175 15H13.875V13.875H13.3688L11.49 9.375H15V18.375H12.75L12.3113 18.5775L10.0612 21.4012L10.5 22.3125H20.625L21.0638 21.4012L18.8138 18.5775L18.375 18.375H16.125V9.375H19.6462L17.7675 13.875H17.25V15H17.4187C17.6027 15.5574 17.9578 16.0425 18.4335 16.3864C18.9092 16.7303 19.4812 16.9154 20.0681 16.9154C20.6551 16.9154 21.2271 16.7303 21.7027 16.3864C22.1784 16.0425 22.5335 15.5574 22.7175 15H22.875V13.875H22.4587ZM11.8725 15.5738C11.6244 15.7111 11.346 15.7845 11.0625 15.7875C10.7823 15.786 10.5072 15.7124 10.2638 15.5738C10.0155 15.4377 9.8063 15.2401 9.65625 15H12.4688C12.32 15.2372 12.1152 15.4342 11.8725 15.5738ZM12.1537 13.875H9.90375L11.0287 11.175L12.1537 13.875ZM18.105 19.5L19.5 21.1875H11.625L13.02 19.5H18.105ZM20.1075 11.1975L21.2325 13.8975H18.9825L20.1075 11.1975ZM20.8725 15.5962C20.6265 15.7388 20.3468 15.8126 20.0625 15.81C19.7816 15.814 19.5051 15.74 19.2638 15.5962C19.0151 15.4507 18.8064 15.2459 18.6562 15H21.4688C21.3293 15.2503 21.1228 15.4568 20.8725 15.5962Z" fill="#69C448"/>
</svg>
