<svg width="60" height="60" viewBox="0 0 60 60" fill="none" xmlns="http://www.w3.org/2000/svg">
<circle cx="30" cy="30" r="30" fill="#F7F7F7"/>
<path d="M44.9175 27.75L41.25 18.75H43.5V16.5H32.25V14.25H30V16.5H18.75V18.75H21L17.355 27.75H16.5V30H16.8375C17.1885 31.1205 17.9017 32.0925 18.8625 32.7675C19.8112 33.4555 20.9531 33.8259 22.125 33.8259C23.2969 33.8259 24.4388 33.4555 25.3875 32.7675C26.3491 32.0884 27.0669 31.1182 27.435 30H27.75V27.75H26.7375L22.98 18.75H30V36.75H25.5L24.6225 37.155L20.1225 42.8025L21 44.625H41.25L42.1275 42.8025L37.6275 37.155L36.75 36.75H32.25V18.75H39.2925L35.535 27.75H34.5V30H34.8375C35.2055 31.1147 35.9157 32.085 36.867 32.7728C37.8183 33.4606 38.9623 33.8308 40.1362 33.8308C41.3102 33.8308 42.4542 33.4606 43.4055 32.7728C44.3568 32.085 45.067 31.1147 45.435 30H45.75V27.75H44.9175ZM23.745 31.1475C23.2488 31.4221 22.6921 31.569 22.125 31.575C21.5646 31.5721 21.0144 31.4248 20.5275 31.1475C20.0309 30.8753 19.6126 30.4802 19.3125 30H24.9375C24.6399 30.4744 24.2304 30.8684 23.745 31.1475ZM24.3075 27.75H19.8075L22.0575 22.35L24.3075 27.75ZM36.21 39L39 42.375H23.25L26.04 39H36.21ZM40.215 22.395L42.465 27.795H37.965L40.215 22.395ZM41.745 31.1925C41.2531 31.4776 40.6936 31.6252 40.125 31.62C39.5632 31.628 39.0102 31.48 38.5275 31.1925C38.0302 30.9015 37.6128 30.4918 37.3125 30H42.9375C42.6586 30.5006 42.2456 30.9136 41.745 31.1925Z" fill="#69C448"/>
</svg>
