<svg width="20" height="20" viewBox="0 0 20 20" fill="none" xmlns="http://www.w3.org/2000/svg">
<path d="M18.2875 8.75L16.25 3.75H17.5V2.5H11.25V1.25H10V2.5H3.75V3.75H5L2.975 8.75H2.5V10H2.6875C2.8825 10.6225 3.27875 11.1625 3.8125 11.5375C4.33956 11.9197 4.97395 12.1255 5.625 12.1255C6.27605 12.1255 6.91044 11.9197 7.4375 11.5375C7.9717 11.1602 8.37048 10.6212 8.575 10H8.75V8.75H8.1875L6.1 3.75H10V13.75H7.5L7.0125 13.975L4.5125 17.1125L5 18.125H16.25L16.7375 17.1125L14.2375 13.975L13.75 13.75H11.25V3.75H15.1625L13.075 8.75H12.5V10H12.6875C12.8919 10.6193 13.2865 11.1583 13.815 11.5404C14.3435 11.9225 14.9791 12.1282 15.6313 12.1282C16.2834 12.1282 16.919 11.9225 17.4475 11.5404C17.976 11.1583 18.3706 10.6193 18.575 10H18.75V8.75H18.2875ZM6.525 10.6375C6.24933 10.7901 5.94005 10.8717 5.625 10.875C5.31368 10.8734 5.00803 10.7916 4.7375 10.6375C4.46164 10.4863 4.22922 10.2668 4.0625 10H7.1875C7.02219 10.2635 6.79469 10.4824 6.525 10.6375ZM6.8375 8.75H4.3375L5.5875 5.75L6.8375 8.75ZM13.45 15L15 16.875H6.25L7.8 15H13.45ZM15.675 5.775L16.925 8.775H14.425L15.675 5.775ZM16.525 10.6625C16.2517 10.8209 15.9409 10.9029 15.625 10.9C15.3129 10.9044 15.0057 10.8222 14.7375 10.6625C14.4612 10.5008 14.2293 10.2732 14.0625 10H17.1875C17.0325 10.2781 16.8031 10.5075 16.525 10.6625Z" fill="#928989"/>
</svg>
