<svg width="20" height="20" viewBox="0 0 20 20" fill="none" xmlns="http://www.w3.org/2000/svg">
<path d="M15.8333 1.66666H5C3.995 1.66666 2.5 2.3325 2.5 4.16666V15.8333C2.5 17.6675 3.995 18.3333 5 18.3333H17.5V16.6667H5.01C4.625 16.6567 4.16667 16.505 4.16667 15.8333C4.16667 15.7492 4.17417 15.6742 4.18667 15.6058C4.28 15.1258 4.67333 15.0083 5.01 15H17.5V3.33333C17.5 2.8913 17.3244 2.46738 17.0118 2.15482C16.6993 1.84226 16.2754 1.66666 15.8333 1.66666ZM15.8333 9.16666L14.1667 8.33333L12.5 9.16666V3.33333H15.8333V9.16666Z" fill="#928989"/>
</svg>
