<svg width="29" height="28" viewBox="0 0 29 28" fill="none" xmlns="http://www.w3.org/2000/svg">
<path d="M24.5198 9.33333C24.2842 9.33333 18.8615 9.36717 14.0198 11.676C9.17815 9.36717 3.75548 9.33333 3.51982 9.33333C3.2104 9.33333 2.91365 9.45625 2.69486 9.67504C2.47607 9.89384 2.35315 10.1906 2.35315 10.5V22.0302C2.35315 22.1867 2.38466 22.3417 2.44579 22.4858C2.50692 22.6299 2.59643 22.7602 2.70898 22.869C2.93648 23.0883 3.26898 23.2248 3.55948 23.1957L3.70765 23.1945C4.50448 23.1945 8.71965 23.3088 13.5263 25.557C13.545 25.5663 13.566 25.5628 13.5847 25.5698C13.7235 25.627 13.8693 25.6667 14.0198 25.6667C14.1703 25.6667 14.3161 25.627 14.4562 25.5698C14.4748 25.5628 14.4958 25.5663 14.5145 25.557C19.3211 23.3077 23.5363 23.1945 24.3332 23.1945L24.4813 23.1957C24.759 23.2248 25.1031 23.0883 25.3318 22.869C25.5581 22.6485 25.6865 22.3452 25.6865 22.0302V10.5C25.6865 10.1906 25.5636 9.89384 25.3448 9.67504C25.126 9.45625 24.8292 9.33333 24.5198 9.33333ZM4.68648 11.7238C6.41898 11.8533 9.79765 12.2838 12.8532 13.6978V22.7302C9.35315 21.3593 6.33148 20.9872 4.68648 20.8915V11.7238ZM23.3532 20.8915C21.7082 20.9872 18.6865 21.3593 15.1865 22.7302V13.6978C18.242 12.2838 21.6207 11.8533 23.3532 11.7238V20.8915Z" fill="#928989"/>
<path d="M14.0198 9.33333C15.9528 9.33333 17.5198 7.76633 17.5198 5.83333C17.5198 3.90034 15.9528 2.33333 14.0198 2.33333C12.0868 2.33333 10.5198 3.90034 10.5198 5.83333C10.5198 7.76633 12.0868 9.33333 14.0198 9.33333Z" fill="#928989"/>
</svg>
