<svg width="32" height="5" viewBox="0 0 32 5" fill="none" xmlns="http://www.w3.org/2000/svg">
<path d="M2.57969 4.29297C1.97031 4.29297 1.4625 4.10547 1.05625 3.73047C0.65 3.35547 0.446875 2.89453 0.446875 2.34766C0.446875 1.78516 0.653906 1.32422 1.06797 0.964844C1.48984 0.605469 2.01328 0.425781 2.63828 0.425781C3.27109 0.425781 3.78672 0.609375 4.18516 0.976562C4.59141 1.33594 4.79453 1.79297 4.79453 2.34766C4.79453 2.91797 4.5875 3.38672 4.17344 3.75391C3.76719 4.11328 3.23594 4.29297 2.57969 4.29297ZM11.4953 4.29297C10.8859 4.29297 10.3781 4.10547 9.97187 3.73047C9.56562 3.35547 9.3625 2.89453 9.3625 2.34766C9.3625 1.78516 9.56953 1.32422 9.98359 0.964844C10.4055 0.605469 10.9289 0.425781 11.5539 0.425781C12.1867 0.425781 12.7023 0.609375 13.1008 0.976562C13.507 1.33594 13.7102 1.79297 13.7102 2.34766C13.7102 2.91797 13.5031 3.38672 13.0891 3.75391C12.6828 4.11328 12.1516 4.29297 11.4953 4.29297ZM20.4109 4.29297C19.8016 4.29297 19.2937 4.10547 18.8875 3.73047C18.4812 3.35547 18.2781 2.89453 18.2781 2.34766C18.2781 1.78516 18.4852 1.32422 18.8992 0.964844C19.3211 0.605469 19.8445 0.425781 20.4695 0.425781C21.1023 0.425781 21.618 0.609375 22.0164 0.976562C22.4227 1.33594 22.6258 1.79297 22.6258 2.34766C22.6258 2.91797 22.4187 3.38672 22.0047 3.75391C21.5984 4.11328 21.0672 4.29297 20.4109 4.29297ZM29.3266 4.29297C28.7172 4.29297 28.2094 4.10547 27.8031 3.73047C27.3969 3.35547 27.1938 2.89453 27.1938 2.34766C27.1938 1.78516 27.4008 1.32422 27.8148 0.964844C28.2367 0.605469 28.7602 0.425781 29.3852 0.425781C30.018 0.425781 30.5336 0.609375 30.932 0.976562C31.3383 1.33594 31.5414 1.79297 31.5414 2.34766C31.5414 2.91797 31.3344 3.38672 30.9203 3.75391C30.5141 4.11328 29.9828 4.29297 29.3266 4.29297Z" fill="black"/>
</svg>
