<svg width="20" height="20" viewBox="0 0 20 20" fill="none" xmlns="http://www.w3.org/2000/svg">
<g clip-path="url(#clip0)">
<path d="M17.8572 0.625H10.2381C10.0491 0.625 9.88573 0.71 9.76192 0.85125C9.62952 0.702133 9.46017 0.621668 9.28573 0.625H1.66668C1.25287 0.625 0.952393 1.01938 0.952393 1.5625V19.0625C0.952393 19.6056 1.25287 20 1.66668 20H9.28573C9.47477 20 9.63811 19.915 9.76192 19.7738C9.88573 19.915 10.0491 20 10.2381 20H17.8572C18.271 20 18.5714 19.6056 18.5714 19.0625V1.5625C18.5714 1.01938 18.271 0.625 17.8572 0.625ZM9.28573 19.375H1.66668C1.51763 19.375 1.42858 19.2581 1.42858 19.0625V1.5625C1.42858 1.36688 1.51763 1.25 1.66668 1.25H9.28573C9.43477 1.25 9.52382 1.36688 9.52382 1.5625V19.0625C9.52382 19.2581 9.43477 19.375 9.28573 19.375ZM18.0952 19.0625C18.0952 19.2581 18.0062 19.375 17.8572 19.375H10.2381C10.0891 19.375 10 19.2581 10 19.0625V1.5625C10 1.36688 10.0891 1.25 10.2381 1.25H17.8572C18.0062 1.25 18.0952 1.36688 18.0952 1.5625V19.0625Z" fill="#928989"/>
<path d="M19.2857 1.875C19.2226 1.875 19.162 1.90792 19.1173 1.96653C19.0727 2.02513 19.0476 2.10462 19.0476 2.1875V18.4375C19.0476 18.5204 19.0727 18.5999 19.1173 18.6585C19.162 18.7171 19.2226 18.75 19.2857 18.75C19.3488 18.75 19.4094 18.7171 19.4541 18.6585C19.4987 18.5999 19.5238 18.5204 19.5238 18.4375V2.1875C19.5238 2.10462 19.4987 2.02513 19.4541 1.96653C19.4094 1.90792 19.3488 1.875 19.2857 1.875Z" fill="#928989"/>
<path d="M0.238095 18.75C0.301242 18.75 0.361802 18.7171 0.406454 18.6585C0.451106 18.5999 0.47619 18.5204 0.47619 18.4375V2.1875C0.47619 2.10462 0.451106 2.02513 0.406454 1.96653C0.361802 1.90792 0.301242 1.875 0.238095 1.875C0.174948 1.875 0.114388 1.90792 0.0697365 1.96653C0.025085 2.02513 0 2.10462 0 2.1875L0 18.4375C0 18.5204 0.025085 18.5999 0.0697365 18.6585C0.114388 18.7171 0.174948 18.75 0.238095 18.75Z" fill="#928989"/>
<path d="M8.33336 6.25H2.61908C2.55593 6.25 2.49537 6.28292 2.45072 6.34153C2.40607 6.40013 2.38098 6.47962 2.38098 6.5625C2.38098 6.64538 2.40607 6.72487 2.45072 6.78347C2.49537 6.84208 2.55593 6.875 2.61908 6.875H8.33336C8.39651 6.875 8.45707 6.84208 8.50172 6.78347C8.54637 6.72487 8.57146 6.64538 8.57146 6.5625C8.57146 6.47962 8.54637 6.40013 8.50172 6.34153C8.45707 6.28292 8.39651 6.25 8.33336 6.25Z" fill="#928989"/>
<path d="M8.33336 8.75H2.61908C2.55593 8.75 2.49537 8.78292 2.45072 8.84153C2.40607 8.90013 2.38098 8.97962 2.38098 9.0625C2.38098 9.14538 2.40607 9.22487 2.45072 9.28347C2.49537 9.34208 2.55593 9.375 2.61908 9.375H8.33336C8.39651 9.375 8.45707 9.34208 8.50172 9.28347C8.54637 9.22487 8.57146 9.14538 8.57146 9.0625C8.57146 8.97962 8.54637 8.90013 8.50172 8.84153C8.45707 8.78292 8.39651 8.75 8.33336 8.75Z" fill="#928989"/>
<path d="M8.33336 3.75H2.61908C2.55593 3.75 2.49537 3.78292 2.45072 3.84153C2.40607 3.90013 2.38098 3.97962 2.38098 4.0625C2.38098 4.14538 2.40607 4.22487 2.45072 4.28347C2.49537 4.34208 2.55593 4.375 2.61908 4.375H8.33336C8.39651 4.375 8.45707 4.34208 8.50172 4.28347C8.54637 4.22487 8.57146 4.14538 8.57146 4.0625C8.57146 3.97962 8.54637 3.90013 8.50172 3.84153C8.45707 3.78292 8.39651 3.75 8.33336 3.75Z" fill="#928989"/>
<path d="M8.33336 11.25H2.61908C2.55593 11.25 2.49537 11.2829 2.45072 11.3415C2.40607 11.4001 2.38098 11.4796 2.38098 11.5625C2.38098 11.6454 2.40607 11.7249 2.45072 11.7835C2.49537 11.8421 2.55593 11.875 2.61908 11.875H8.33336C8.39651 11.875 8.45707 11.8421 8.50172 11.7835C8.54637 11.7249 8.57146 11.6454 8.57146 11.5625C8.57146 11.4796 8.54637 11.4001 8.50172 11.3415C8.45707 11.2829 8.39651 11.25 8.33336 11.25Z" fill="#928989"/>
<path d="M8.33336 13.75H2.61908C2.55593 13.75 2.49537 13.7829 2.45072 13.8415C2.40607 13.9001 2.38098 13.9796 2.38098 14.0625C2.38098 14.1454 2.40607 14.2249 2.45072 14.2835C2.49537 14.3421 2.55593 14.375 2.61908 14.375H8.33336C8.39651 14.375 8.45707 14.3421 8.50172 14.2835C8.54637 14.2249 8.57146 14.1454 8.57146 14.0625C8.57146 13.9796 8.54637 13.9001 8.50172 13.8415C8.45707 13.7829 8.39651 13.75 8.33336 13.75Z" fill="#928989"/>
<path d="M8.33336 16.25H2.61908C2.55593 16.25 2.49537 16.2829 2.45072 16.3415C2.40607 16.4001 2.38098 16.4796 2.38098 16.5625C2.38098 16.6454 2.40607 16.7249 2.45072 16.7835C2.49537 16.8421 2.55593 16.875 2.61908 16.875H8.33336C8.39651 16.875 8.45707 16.8421 8.50172 16.7835C8.54637 16.7249 8.57146 16.6454 8.57146 16.5625C8.57146 16.4796 8.54637 16.4001 8.50172 16.3415C8.45707 16.2829 8.39651 16.25 8.33336 16.25Z" fill="#928989"/>
<path d="M16.9048 6.25H11.1905C11.1273 6.25 11.0668 6.28292 11.0221 6.34153C10.9775 6.40013 10.9524 6.47962 10.9524 6.5625C10.9524 6.64538 10.9775 6.72487 11.0221 6.78347C11.0668 6.84208 11.1273 6.875 11.1905 6.875H16.9048C16.9679 6.875 17.0285 6.84208 17.0731 6.78347C17.1178 6.72487 17.1429 6.64538 17.1429 6.5625C17.1429 6.47962 17.1178 6.40013 17.0731 6.34153C17.0285 6.28292 16.9679 6.25 16.9048 6.25Z" fill="#928989"/>
<path d="M16.9048 8.75H11.1905C11.1273 8.75 11.0668 8.78292 11.0221 8.84153C10.9775 8.90013 10.9524 8.97962 10.9524 9.0625C10.9524 9.14538 10.9775 9.22487 11.0221 9.28347C11.0668 9.34208 11.1273 9.375 11.1905 9.375H16.9048C16.9679 9.375 17.0285 9.34208 17.0731 9.28347C17.1178 9.22487 17.1429 9.14538 17.1429 9.0625C17.1429 8.97962 17.1178 8.90013 17.0731 8.84153C17.0285 8.78292 16.9679 8.75 16.9048 8.75Z" fill="#928989"/>
<path d="M16.9048 3.75H11.1905C11.1273 3.75 11.0668 3.78292 11.0221 3.84153C10.9775 3.90013 10.9524 3.97962 10.9524 4.0625C10.9524 4.14538 10.9775 4.22487 11.0221 4.28347C11.0668 4.34208 11.1273 4.375 11.1905 4.375H16.9048C16.9679 4.375 17.0285 4.34208 17.0731 4.28347C17.1178 4.22487 17.1429 4.14538 17.1429 4.0625C17.1429 3.97962 17.1178 3.90013 17.0731 3.84153C17.0285 3.78292 16.9679 3.75 16.9048 3.75Z" fill="#928989"/>
<path d="M16.9048 11.25H11.1905C11.1273 11.25 11.0668 11.2829 11.0221 11.3415C10.9775 11.4001 10.9524 11.4796 10.9524 11.5625C10.9524 11.6454 10.9775 11.7249 11.0221 11.7835C11.0668 11.8421 11.1273 11.875 11.1905 11.875H16.9048C16.9679 11.875 17.0285 11.8421 17.0731 11.7835C17.1178 11.7249 17.1429 11.6454 17.1429 11.5625C17.1429 11.4796 17.1178 11.4001 17.0731 11.3415C17.0285 11.2829 16.9679 11.25 16.9048 11.25Z" fill="#928989"/>
<path d="M16.9048 13.75H11.1905C11.1273 13.75 11.0668 13.7829 11.0221 13.8415C10.9775 13.9001 10.9524 13.9796 10.9524 14.0625C10.9524 14.1454 10.9775 14.2249 11.0221 14.2835C11.0668 14.3421 11.1273 14.375 11.1905 14.375H16.9048C16.9679 14.375 17.0285 14.3421 17.0731 14.2835C17.1178 14.2249 17.1429 14.1454 17.1429 14.0625C17.1429 13.9796 17.1178 13.9001 17.0731 13.8415C17.0285 13.7829 16.9679 13.75 16.9048 13.75Z" fill="#928989"/>
<path d="M16.9048 16.25H11.1905C11.1273 16.25 11.0668 16.2829 11.0221 16.3415C10.9775 16.4001 10.9524 16.4796 10.9524 16.5625C10.9524 16.6454 10.9775 16.7249 11.0221 16.7835C11.0668 16.8421 11.1273 16.875 11.1905 16.875H16.9048C16.9679 16.875 17.0285 16.8421 17.0731 16.7835C17.1178 16.7249 17.1429 16.6454 17.1429 16.5625C17.1429 16.4796 17.1178 16.4001 17.0731 16.3415C17.0285 16.2829 16.9679 16.25 16.9048 16.25Z" fill="#928989"/>
</g>
<defs>
<clipPath id="clip0">
<rect width="20" height="20" fill="white"/>
</clipPath>
</defs>
</svg>
