<svg width="28" height="28" viewBox="0 0 28 28" fill="none" xmlns="http://www.w3.org/2000/svg">
<path d="M22.75 15.4V13.125H21V15.75C20.9969 15.865 21.0187 15.9793 21.0641 16.085C21.1094 16.1908 21.1771 16.2854 21.2625 16.3625L23.625 18.725V20.125H4.37496V18.725L6.73746 16.3625C6.82287 16.2854 6.89055 16.1908 6.93587 16.085C6.98118 15.9793 7.00305 15.865 6.99996 15.75V11.375C6.99996 9.51848 7.73746 7.73801 9.05022 6.42525C10.363 5.1125 12.1434 4.375 14 4.375C15.2308 4.37524 16.4392 4.70452 17.5 5.32875V3.325C16.6682 2.95238 15.7818 2.71602 14.875 2.625V0.875H13.125V2.625C10.9704 2.87062 8.98018 3.89602 7.52952 5.50785C6.07887 7.11969 5.26806 9.20657 5.24996 11.375V15.4L2.88746 17.7625C2.80206 17.8396 2.73437 17.9342 2.68906 18.04C2.64374 18.1457 2.62188 18.26 2.62496 18.375V21C2.61723 21.1169 2.63456 21.2341 2.6758 21.3438C2.71704 21.4535 2.78123 21.553 2.86407 21.6359C2.94692 21.7187 3.04651 21.7829 3.15618 21.8242C3.26584 21.8654 3.38306 21.8827 3.49996 21.875H9.62496C9.62496 23.0353 10.0859 24.1481 10.9064 24.9686C11.7268 25.7891 12.8396 26.25 14 26.25C15.1603 26.25 16.2731 25.7891 17.0936 24.9686C17.914 24.1481 18.375 23.0353 18.375 21.875H24.5C24.6169 21.8827 24.7341 21.8654 24.8438 21.8242C24.9534 21.7829 25.053 21.7187 25.1359 21.6359C25.2187 21.553 25.2829 21.4535 25.3241 21.3438C25.3654 21.2341 25.3827 21.1169 25.375 21V18.375C25.3781 18.26 25.3562 18.1457 25.3109 18.04C25.2656 17.9342 25.1979 17.8396 25.1125 17.7625L22.75 15.4ZM14 24.5C13.3038 24.5 12.6361 24.2234 12.1438 23.7312C11.6515 23.2389 11.375 22.5712 11.375 21.875H16.625C16.625 22.5712 16.3484 23.2389 15.8561 23.7312C15.3638 24.2234 14.6962 24.5 14 24.5Z" fill="#CEBF09"/>
<path d="M22.75 10.5C24.683 10.5 26.25 8.933 26.25 7C26.25 5.067 24.683 3.5 22.75 3.5C20.817 3.5 19.25 5.067 19.25 7C19.25 8.933 20.817 10.5 22.75 10.5Z" fill="#CEBF09"/>
</svg>
