<svg width="20" height="20" viewBox="0 0 20 20" fill="none" xmlns="http://www.w3.org/2000/svg">
<path d="M16.25 11V9.375H15V11.25C14.9978 11.3321 15.0134 11.4138 15.0458 11.4893C15.0781 11.5648 15.1265 11.6324 15.1875 11.6875L16.875 13.375V14.375H3.125V13.375L4.8125 11.6875C4.8735 11.6324 4.92185 11.5648 4.95422 11.4893C4.98659 11.4138 5.00221 11.3321 5 11.25V8.125C5 6.79892 5.52678 5.52715 6.46447 4.58947C7.40215 3.65178 8.67392 3.125 10 3.125C10.8792 3.12517 11.7423 3.36037 12.5 3.80625V2.375C11.9059 2.10884 11.2728 1.94002 10.625 1.875V0.625H9.375V1.875C7.83604 2.05044 6.41444 2.78287 5.37826 3.93418C4.34208 5.08549 3.76292 6.57612 3.75 8.125V11L2.0625 12.6875C2.0015 12.7426 1.95315 12.8102 1.92078 12.8857C1.88841 12.9612 1.87279 13.0429 1.875 13.125V15C1.86948 15.0835 1.88186 15.1672 1.91131 15.2456C1.94077 15.3239 1.98662 15.395 2.04579 15.4542C2.10497 15.5134 2.17611 15.5592 2.25444 15.5887C2.33277 15.6181 2.41649 15.6305 2.5 15.625H6.875C6.875 16.4538 7.20424 17.2487 7.79029 17.8347C8.37634 18.4208 9.1712 18.75 10 18.75C10.8288 18.75 11.6237 18.4208 12.2097 17.8347C12.7958 17.2487 13.125 16.4538 13.125 15.625H17.5C17.5835 15.6305 17.6672 15.6181 17.7456 15.5887C17.8239 15.5592 17.895 15.5134 17.9542 15.4542C18.0134 15.395 18.0592 15.3239 18.0887 15.2456C18.1181 15.1672 18.1305 15.0835 18.125 15V13.125C18.1272 13.0429 18.1116 12.9612 18.0792 12.8857C18.0469 12.8102 17.9985 12.7426 17.9375 12.6875L16.25 11ZM10 17.5C9.50272 17.5 9.0258 17.3025 8.67417 16.9508C8.32254 16.5992 8.125 16.1223 8.125 15.625H11.875C11.875 16.1223 11.6775 16.5992 11.3258 16.9508C10.9742 17.3025 10.4973 17.5 10 17.5Z" fill="#CEBF09"/>
<path d="M16.25 7.5C17.6307 7.5 18.75 6.38071 18.75 5C18.75 3.61929 17.6307 2.5 16.25 2.5C14.8693 2.5 13.75 3.61929 13.75 5C13.75 6.38071 14.8693 7.5 16.25 7.5Z" fill="#CEBF09"/>
</svg>
