<svg width="20" height="20" viewBox="0 0 20 20" fill="none" xmlns="http://www.w3.org/2000/svg">
<path fill-rule="evenodd" clip-rule="evenodd" d="M15.9825 1.34C13.985 0.940003 11.355 0.887503 9.5575 2.6825C9.4995 2.74065 9.45353 2.80966 9.42221 2.88559C9.3909 2.96152 9.37485 3.04287 9.375 3.125V16.875C9.37478 16.9988 9.41131 17.1198 9.47998 17.2228C9.54864 17.3258 9.64633 17.4061 9.76067 17.4535C9.87501 17.5009 10.0009 17.5133 10.1222 17.489C10.2436 17.4648 10.3551 17.4051 10.4425 17.3175C11.4963 16.2625 13.0863 15.9938 14.78 16.1675C16.46 16.3425 18.105 16.9388 19.095 17.4338C19.1903 17.4815 19.2962 17.5041 19.4027 17.4994C19.5092 17.4946 19.6127 17.4628 19.7033 17.4068C19.794 17.3508 19.8689 17.2725 19.9208 17.1795C19.9727 17.0864 20 16.9816 20 16.875V3.125C20 3.00903 19.9677 2.89534 19.9068 2.79667C19.8459 2.69799 19.7587 2.61821 19.655 2.56625L19.375 3.125L19.655 2.56625L19.6525 2.565L19.6475 2.5625L19.6313 2.555L19.5725 2.52625C19.2446 2.37314 18.9115 2.23139 18.5738 2.10125C17.7327 1.77582 16.8659 1.52119 15.9825 1.34ZM18.75 3.525V15.91C17.6925 15.4813 16.32 15.07 14.9075 14.925C13.4788 14.7775 11.9238 14.8963 10.625 15.625V3.3975C11.9538 2.23625 13.9138 2.2025 15.7375 2.5675C16.7727 2.77928 17.7825 3.10024 18.75 3.525Z" fill="#928989"/>
<path fill-rule="evenodd" clip-rule="evenodd" d="M4.0175 1.34C6.01625 0.940003 8.645 0.887503 10.4425 2.6825C10.5005 2.74065 10.5465 2.80966 10.5778 2.88559C10.6091 2.96152 10.6251 3.04287 10.625 3.125V16.875C10.6252 16.9988 10.5887 17.1198 10.52 17.2228C10.4514 17.3258 10.3537 17.4061 10.2393 17.4535C10.125 17.5009 9.99915 17.5133 9.87776 17.489C9.75638 17.4648 9.64491 17.4051 9.5575 17.3175C8.50375 16.2625 6.91375 15.9938 5.22 16.1675C3.54 16.3425 1.895 16.9388 0.905 17.4338C0.809714 17.4815 0.7038 17.5041 0.597324 17.4994C0.490849 17.4946 0.387349 17.4628 0.296661 17.4068C0.205973 17.3508 0.13111 17.2725 0.079186 17.1795C0.0272624 17.0864 3.57642e-06 16.9816 0 16.875L0 3.125C3.89167e-06 3.00903 0.0322754 2.89534 0.0932043 2.79667C0.154133 2.69799 0.241316 2.61821 0.345 2.56625L0.625 3.125L0.345 2.56625L0.3475 2.565L0.3525 2.5625L0.36875 2.555C0.459364 2.50987 0.551058 2.46694 0.64375 2.42625C1.72561 1.94176 2.85739 1.5775 4.01875 1.34H4.0175Z" fill="#928989"/>
</svg>
